<?xml version="1.0" encoding="UTF-8" standalone="no"?>
<!-- Created with Inkscape (http://www.inkscape.org/) -->

<svg
   xmlns:dc="http://purl.org/dc/elements/1.1/"
   xmlns:cc="http://creativecommons.org/ns#"
   xmlns:rdf="http://www.w3.org/1999/02/22-rdf-syntax-ns#"
   xmlns:svg="http://www.w3.org/2000/svg"
   xmlns="http://www.w3.org/2000/svg"
   xmlns:sodipodi="http://sodipodi.sourceforge.net/DTD/sodipodi-0.dtd"
   xmlns:inkscape="http://www.inkscape.org/namespaces/inkscape"
   width="38.439747mm"
   height="38.439735mm"
   viewBox="0 0 136.20383 136.20379"
   id="svg2"
   version="1.1"
   inkscape:version="0.91 r13725"
   sodipodi:docname="tote-logo.svg"
   inkscape:export-filename="/home/sheep/tote-logo.png"
   inkscape:export-xdpi="21.144785"
   inkscape:export-ydpi="21.144785">
  <defs
     id="defs4" />
  <sodipodi:namedview
     id="base"
     pagecolor="#ffffff"
     bordercolor="#666666"
     borderopacity="1.0"
     inkscape:pageopacity="0.0"
     inkscape:pageshadow="2"
     inkscape:zoom="1"
     inkscape:cx="-161.97428"
     inkscape:cy="151.20382"
     inkscape:document-units="px"
     inkscape:current-layer="layer1"
     showgrid="true"
     showguides="true"
     inkscape:guide-bbox="true"
     inkscape:window-width="1920"
     inkscape:window-height="1141"
     inkscape:window-x="0"
     inkscape:window-y="0"
     inkscape:window-maximized="1"
     fit-margin-top="0"
     fit-margin-left="0"
     fit-margin-right="0"
     fit-margin-bottom="0"
     gridtolerance="10000">
    <sodipodi:guide
       position="215.47049,123.33502"
       orientation="1,0"
       id="guide4170" />
    <sodipodi:guide
       position="258.62928,103.74417"
       orientation="1,0"
       id="guide4174" />
    <inkscape:grid
       type="xygrid"
       id="grid4263"
       dotted="false"
       spacingx="5.0000001"
       spacingy="5.0000003"
       empspacing="25"
       originx="0"
       originy="1.2000001" />
  </sodipodi:namedview>
  <metadata
     id="metadata7">
    <rdf:RDF>
      <cc:Work
         rdf:about="">
        <dc:format>image/svg+xml</dc:format>
        <dc:type
           rdf:resource="http://purl.org/dc/dcmitype/StillImage" />
        <dc:title></dc:title>
      </cc:Work>
    </rdf:RDF>
  </metadata>
  <g
     inkscape:label="Layer 1"
     inkscape:groupmode="layer"
     id="layer1"
     transform="translate(-227.60678,-82.929672)">
    <path
       style="color:#000000;font-style:normal;font-variant:normal;font-weight:normal;font-stretch:normal;font-size:medium;line-height:normal;font-family:sans-serif;text-indent:0;text-align:start;text-decoration:none;text-decoration-line:none;text-decoration-style:solid;text-decoration-color:#000000;letter-spacing:normal;word-spacing:normal;text-transform:none;direction:ltr;block-progression:tb;writing-mode:lr-tb;baseline-shift:baseline;text-anchor:start;white-space:normal;clip-rule:nonzero;display:inline;overflow:visible;visibility:visible;opacity:1;isolation:auto;mix-blend-mode:normal;color-interpolation:sRGB;color-interpolation-filters:linearRGB;solid-color:#000000;solid-opacity:1;fill:#000000;fill-opacity:1;fill-rule:nonzero;stroke:none;stroke-width:9.00000202;stroke-linecap:round;stroke-linejoin:miter;stroke-miterlimit:4;stroke-dasharray:none;stroke-dashoffset:0;stroke-opacity:1;color-rendering:auto;image-rendering:auto;shape-rendering:auto;text-rendering:auto;enable-background:accumulate"
       d="m 284.1158,100.94279 c -7.02859,0 -12.79673,5.66536 -12.9961,12.64844 a 3.0003,3.0003 0 0 0 -3.01953,-2.63086 l -1.42383,0 0,-2.76172 a 3.0003,3.0003 0 0 0 -3.04492,-3.04297 3.0003,3.0003 0 0 0 -2.95508,3.04297 l 0,2.76172 -2.09765,0 a 3.0003,3.0003 0 1 0 0,6 l 2.09765,0 0,2.98047 a 3.0003,3.0003 0 1 0 6,0 l 0,-2.98047 1.42383,0 a 3.0003,3.0003 0 0 0 3.01758,-2.64648 c 0.19109,6.99026 5.96417,12.66211 12.99805,12.66211 7.15321,0 13.01757,-5.86242 13.01757,-13.01563 0,-7.15321 -5.86436,-13.01758 -13.01757,-13.01758 z m 43.12109,0.14844 c -6.90485,-8.4e-4 -12.59195,5.46636 -12.98047,12.2793 a 3.0003,3.0003 0 0 0 -2.98047,-2.41016 l -2.45312,0 0,-2.76172 a 3.0003,3.0003 0 0 0 -3.04493,-3.04297 3.0003,3.0003 0 0 0 -2.95507,3.04297 l 0,2.76172 -2.57032,0 a 3.0003,3.0003 0 1 0 0,6 l 2.57032,0 0,2.98047 a 3.0003,3.0003 0 1 0 6,0 l 0,-2.98047 2.45312,0 a 3.0003,3.0003 0 0 0 2.96875,-2.35352 c 0.26822,6.92269 6.00755,12.51646 12.99219,12.51563 l 0.0762,0 0.11524,-0.006 a 3.0003,3.0003 0 0 0 -0.19922,-5.99609 c -3.90769,-0.003 -7.00947,-3.10511 -7.00977,-7.01368 3e-4,-3.91068 3.10493,-7.01609 7.01563,-7.01562 a 3.0003,3.0003 0 0 0 0.19336,-5.99414 l -0.11524,-0.006 -0.0762,0 z m -43.12109,5.85156 c 3.91057,0 7.01757,3.10701 7.01757,7.01758 0,3.91057 -3.107,7.01563 -7.01757,7.01563 -3.91058,0 -7.01563,-3.10506 -7.01563,-7.01563 0,-3.91057 3.10505,-7.01758 7.01563,-7.01758 z m 39.16015,4.01758 a 3.0003,3.0003 0 1 0 0,6 l 2.97656,0 a 3.0003,3.0003 0 1 0 0,-6 l -2.97656,0 z"
       id="path4176"
       inkscape:connector-curvature="0" />
    <rect
       style="opacity:1;fill:none;fill-opacity:1;stroke:#000000;stroke-width:9.00000202;stroke-linecap:round;stroke-linejoin:miter;stroke-miterlimit:4;stroke-dasharray:none;stroke-dashoffset:0;stroke-opacity:1"
       id="rect4240"
       width="124.99622"
       height="125.00002"
       x="232.61057"
       y="87.933456"
       rx="24.25"
       ry="24.25" />
    <rect
       style="opacity:1;fill:none;fill-opacity:1;stroke:#000000;stroke-width:7.50000232;stroke-linecap:round;stroke-linejoin:miter;stroke-miterlimit:4;stroke-dasharray:none;stroke-dashoffset:0;stroke-opacity:1"
       id="rect4242"
       width="65"
       height="60.000011"
       x="262.60678"
       y="132.93346"
       rx="17.25"
       ry="17.25" />
    <path
       style="opacity:1;fill:none;fill-opacity:0.70984461;stroke:#000000;stroke-width:9.00000202;stroke-linecap:round;stroke-linejoin:miter;stroke-miterlimit:4;stroke-dasharray:none;stroke-dashoffset:0;stroke-opacity:1"
       d="m 328.14896,159.81157 c 9.20119,0 15.04313,5.88157 15.07135,15.08272"
       id="path4265"
       inkscape:connector-curvature="0"
       sodipodi:nodetypes="cc" />
    <circle
       style="opacity:1;fill:none;fill-opacity:0.70984461;stroke:#000000;stroke-width:7.50000232;stroke-linecap:round;stroke-linejoin:miter;stroke-miterlimit:4;stroke-dasharray:none;stroke-dashoffset:0;stroke-opacity:1"
       id="ellipse4267"
       cx="278.63797"
       cy="176.54364"
       r="6.6561923" />
    <circle
       r="6.6561923"
       cy="176.54364"
       cx="312.63797"
       id="circle4273"
       style="opacity:1;fill:none;fill-opacity:0.70984461;stroke:#000000;stroke-width:7.50000232;stroke-linecap:round;stroke-linejoin:miter;stroke-miterlimit:4;stroke-dasharray:none;stroke-dashoffset:0;stroke-opacity:1" />
    <path
       sodipodi:nodetypes="cc"
       inkscape:connector-curvature="0"
       id="path4277"
       d="m 328.14896,181.81157 c 9.20119,0 15.04313,5.88157 15.07135,15.08272"
       style="opacity:1;fill:none;fill-opacity:0.70984461;stroke:#000000;stroke-width:9.00000202;stroke-linecap:round;stroke-linejoin:miter;stroke-miterlimit:4;stroke-dasharray:none;stroke-dashoffset:0;stroke-opacity:1" />
    <path
       sodipodi:nodetypes="cc"
       inkscape:connector-curvature="0"
       id="path4279"
       d="m 261.99051,159.81157 c -9.20119,0 -15.04313,5.88157 -15.07135,15.08272"
       style="opacity:1;fill:none;fill-opacity:0.70984461;stroke:#000000;stroke-width:9.00000202;stroke-linecap:round;stroke-linejoin:miter;stroke-miterlimit:4;stroke-dasharray:none;stroke-dashoffset:0;stroke-opacity:1" />
    <path
       style="opacity:1;fill:none;fill-opacity:0.70984461;stroke:#000000;stroke-width:9.00000202;stroke-linecap:round;stroke-linejoin:miter;stroke-miterlimit:4;stroke-dasharray:none;stroke-dashoffset:0;stroke-opacity:1"
       d="m 261.99051,181.81157 c -9.20119,0 -15.04313,5.88157 -15.07135,15.08272"
       id="path4281"
       inkscape:connector-curvature="0"
       sodipodi:nodetypes="cc" />
  </g>
</svg>
